solid b'binary stl file                                                                \x00'
facet normal 0.0 0.0 400.0
  outer loop
    vertex -35.0 60.0 20.0
    vertex -55.0 60.0 20.0
    vertex -35.0 40.0 20.0
  endloop
endfacet
facet normal 0.0 0.0 400.0
  outer loop
    vertex -35.0 40.0 20.0
    vertex -55.0 60.0 20.0
    vertex -55.0 40.0 20.0
  endloop
endfacet
facet normal 0.0 0.0 -400.0
  outer loop
    vertex -35.0 40.0 0.0
    vertex -55.0 40.0 0.0
    vertex -35.0 60.0 0.0
  endloop
endfacet
facet normal -0.0 0.0 -400.0
  outer loop
    vertex -35.0 60.0 0.0
    vertex -55.0 40.0 0.0
    vertex -55.0 60.0 0.0
  endloop
endfacet
facet normal 0.0 -400.0 0.0
  outer loop
    vertex -55.0 40.0 20.0
    vertex -55.0 40.0 0.0
    vertex -35.0 40.0 20.0
  endloop
endfacet
facet normal 0.0 -400.0 -0.0
  outer loop
    vertex -35.0 40.0 20.0
    vertex -55.0 40.0 0.0
    vertex -35.0 40.0 0.0
  endloop
endfacet
facet normal -400.0 -0.0 -0.0
  outer loop
    vertex -55.0 60.0 20.0
    vertex -55.0 60.0 0.0
    vertex -55.0 40.0 20.0
  endloop
endfacet
facet normal -400.0 0.0 0.0
  outer loop
    vertex -55.0 40.0 20.0
    vertex -55.0 60.0 0.0
    vertex -55.0 40.0 0.0
  endloop
endfacet
facet normal 0.0 400.0 0.0
  outer loop
    vertex -35.0 60.0 20.0
    vertex -35.0 60.0 0.0
    vertex -55.0 60.0 20.0
  endloop
endfacet
facet normal 0.0 400.0 0.0
  outer loop
    vertex -55.0 60.0 20.0
    vertex -35.0 60.0 0.0
    vertex -55.0 60.0 0.0
  endloop
endfacet
facet normal 400.0 -0.0 0.0
  outer loop
    vertex -35.0 40.0 20.0
    vertex -35.0 40.0 0.0
    vertex -35.0 60.0 20.0
  endloop
endfacet
facet normal 400.0 0.0 0.0
  outer loop
    vertex -35.0 60.0 20.0
    vertex -35.0 40.0 0.0
    vertex -35.0 60.0 0.0
  endloop
endfacet
endsolid b'binary stl file                                                                \x00'
